<svg xmlns="http://www.w3.org/2000/svg" width="13.253" height="14.028" viewBox="0 0 13.253 14.028"><defs><style>.a{fill:#fff;}</style></defs><path class="a" d="M25.2,6.2,19.334.342a1.141,1.141,0,0,0-1.63,0l-.675.675a1.07,1.07,0,0,0-.342.81,1.07,1.07,0,0,0,.342.81l2.638,2.647H13.328a.959.959,0,0,0-.761.338,1.2,1.2,0,0,0-.293.815V7.59a1.2,1.2,0,0,0,.293.815.959.959,0,0,0,.761.338h6.339l-2.638,2.638a1.152,1.152,0,0,0,0,1.639l.675.675a1.163,1.163,0,0,0,1.63,0L25.2,7.833a1.114,1.114,0,0,0,.333-.819A1.066,1.066,0,0,0,25.2,6.2Z" transform="translate(-12.275 0)"/></svg>