<svg xmlns="http://www.w3.org/2000/svg" width="29" height="32.003" viewBox="0 0 29 32.003"><defs><style>.a{fill:none;}.b{fill:gray;}</style></defs><g transform="translate(0 49.817) rotate(-90)"><path class="a" d="M0,0H32V29H0Z" transform="translate(17.813)"/><path class="b" d="M22.862,11.479H7.4A5.127,5.127,0,0,1,2.017,6.646,5.127,5.127,0,0,1,7.4,1.812H24.207a3.206,3.206,0,0,1,3.362,3.021,3.206,3.206,0,0,1-3.362,3.021H10.086A1.286,1.286,0,0,1,8.742,6.646a1.286,1.286,0,0,1,1.345-1.208H22.862V3.625H10.086A3.206,3.206,0,0,0,6.724,6.646a3.206,3.206,0,0,0,3.362,3.021H24.207a5.127,5.127,0,0,0,5.379-4.833A5.127,5.127,0,0,0,24.207,0H7.4C3.308,0,0,2.972,0,6.646s3.308,6.646,7.4,6.646H22.862Z" transform="translate(19.626 7.854)"/></g></svg>