<svg xmlns="http://www.w3.org/2000/svg" width="16" height="16" viewBox="0 0 16 16"><defs><style>.a{fill:#272727;}</style></defs><path class="a" d="M3.155,0A3.156,3.156,0,1,0,6.311,3.155,3.159,3.159,0,0,0,3.155,0Z"/><g transform="translate(9.689)"><path class="a" d="M108.668,6.311a3.156,3.156,0,1,1,3.156-3.156A3.159,3.159,0,0,1,108.668,6.311Zm0-4.94a1.784,1.784,0,1,0,1.784,1.784A1.786,1.786,0,0,0,108.668,1.371Z" transform="translate(-105.513)"/></g><g transform="translate(0 9.689)"><path class="a" d="M3.155,111.822a3.156,3.156,0,1,1,3.156-3.155A3.159,3.159,0,0,1,3.155,111.822Zm0-4.94a1.784,1.784,0,1,0,1.784,1.784A1.786,1.786,0,0,0,3.155,106.882Z" transform="translate(0 -105.511)"/></g><path class="a" d="M108.668,105.511a3.156,3.156,0,1,0,3.156,3.156A3.159,3.159,0,0,0,108.668,105.511Z" transform="translate(-95.824 -95.822)"/></svg>