<svg xmlns="http://www.w3.org/2000/svg" width="23.844" height="23.844" viewBox="0 0 23.844 23.844"><defs><style>.a{fill:none;}</style></defs><path class="a" d="M0,0H23.844V23.844H0Z"/><path d="M10.948,14.909h1.987V16.9H10.948Zm0-7.948h1.987v5.961H10.948ZM18.9,2.987H14.743a2.969,2.969,0,0,0-5.6,0H4.987a1.74,1.74,0,0,0-.4.04A2.007,2.007,0,0,0,3.159,4.209,1.914,1.914,0,0,0,3,4.974V18.883a2.038,2.038,0,0,0,.159.775,2.106,2.106,0,0,0,.427.636,2,2,0,0,0,1,.546,2.578,2.578,0,0,0,.4.03H18.9a1.993,1.993,0,0,0,1.987-1.987V4.974A1.993,1.993,0,0,0,18.9,2.987Zm-6.954-.248a.745.745,0,1,1-.745.745A.751.751,0,0,1,11.941,2.739ZM18.9,18.883H4.987V4.974H18.9Z" transform="translate(-0.02 -0.007)"/></svg>