<svg xmlns="http://www.w3.org/2000/svg" width="267.867" height="215.231" viewBox="0 0 267.867 215.231"><defs><style>.a,.b{fill:#fd585c;}.a,.f{opacity:0.1;}.c{fill:#fff;}.d{fill:#3f3d56;}.e{fill:#2f2e41;}.g{fill:#ececf3;}</style></defs><g transform="translate(-13.843 0)"><path class="a" d="M326.086,233.766c.147-1.883-9.6-3.484-9.6-5.417,0-30.264-20.106-53.156-42.76-53.156a33.166,33.166,0,0,0-19.9,6.883,91.495,91.495,0,0,0-143.415,31.893c-.788-.061-1.584-.095-2.388-.095-22.666,0-45.855,21.033-42.434,37.854,0,11.123,3.892,38.419,8.155,47.062h0c0,27.227,19.512,49.307,43.581,49.307h30.344l.134-.259a6.5,6.5,0,0,1,9.029-2.208,9.224,9.224,0,0,0,2.4,1.335c3.514.834,5.875-5.487,9.432-4.872,1.786.309,3.179,2.372,4.974,2.161,1.191-.142,2.094-1.257,3.213-1.73,1.793-.762,3.611.295,4.867,2.011.729-2.344.724-5.122,1.9-7.272a6.5,6.5,0,0,1,9.029-2.208,9.226,9.226,0,0,0,2.4,1.335c3.514.834,5.875-5.487,9.432-4.872,1.786.309,3.179,2.372,4.974,2.161,1.191-.142,2.094-1.257,3.213-1.73,2.791-1.187,5.648,2.036,6.335,5.284a25.088,25.088,0,0,1,.42,4.349c2.408-1.3,4.442-4.972,7.191-4.5,1.786.309,3.179,2.372,4.974,2.161,1.191-.142,2.094-1.257,3.213-1.73,2.791-1.187,5.648,2.036,6.335,5.284a30.676,30.676,0,0,1,.453,5.284h50.279c18.9,0,34.219-17.33,34.219-38.709h0a68.811,68.811,0,0,0,6.051-28.659C332.137,262.083,336.734,243.666,326.086,233.766Z" transform="translate(-51.414 -132.866)"/><path class="b" d="M24.031,0C37.3,0,48.061,10.993,48.061,24.553S37.3,49.106,24.031,49.106,0,38.113,0,24.553,10.759,0,24.031,0Z" transform="translate(149.408 25.075)"/><path class="c" d="M594.99,162.16l7.75-7.75,7.828,7.75h-5.32v5.926H600.31V162.2Z" transform="translate(-429.533 -111.471)"/><path class="c" d="M749.032,446.833a8.273,8.273,0,0,0-15.47-2.225,6.621,6.621,0,0,0,.718,13.2h14.366a5.542,5.542,0,0,0,5.526-5.512A5.456,5.456,0,0,0,749.032,446.833Zm-6.354,3.259v4.188h-3.523v-4.2h-3.768l5.526-5.526,5.523,5.526Z" transform="translate(-543.939 -335.266)"/><path class="c" d="M901.032,693.833a8.273,8.273,0,0,0-15.47-2.225,6.621,6.621,0,0,0,.718,13.2h14.366a5.542,5.542,0,0,0,5.526-5.512A5.456,5.456,0,0,0,901.032,693.833Zm-6.354,3.259v4.188h-3.523v-4.2h-3.768l5.526-5.526,5.523,5.526Z" transform="translate(-653.671 -513.58)"/><path class="c" d="M310.7,506.18a12.792,12.792,0,0,0-23.915-3.415,10.233,10.233,0,0,0,1.112,20.406h22.2a8.565,8.565,0,0,0,8.537-8.543A8.434,8.434,0,0,0,310.7,506.18Zm-9.819,5.033v6.49h-5.464v-6.49h-5.806l8.54-8.537,8.532,8.537Z" transform="translate(-219.084 -375.486)"/><path class="c" d="M727.005,589.9v-6.757l3.115,3.115.779-.807L726.449,581,722,585.449l.779.779,3.115-3.087V589.9Z" transform="translate(-539.855 -436.958)"/><path class="c" d="M168.005,622.9v-6.757l3.115,3.115.779-.807L167.449,614,163,618.449l.779.779,3.115-3.087V622.9Z" transform="translate(-136.304 -460.782)"/><path class="c" d="M729.254,366.688v-5.064l2.336,2.336.584-.6-3.337-3.337-3.337,3.337.584.584,2.336-2.316v5.064Z" transform="translate(-542.382 -277.429)"/><path class="c" d="M510.254,234.688v-5.064l2.336,2.336.584-.6-3.337-3.337-3.337,3.337.584.584,2.336-2.316v5.064Z" transform="translate(-384.282 -182.136)"/><path class="c" d="M428.254,414.688v-5.064l2.336,2.336.584-.6-3.337-3.337-3.337,3.337.584.584,2.336-2.316v5.064Z" transform="translate(-325.085 -312.081)"/><path class="c" d="M942.254,498.688v-5.064l2.336,2.336.584-.6-3.337-3.337-3.337,3.337.584.584,2.336-2.316v5.064Z" transform="translate(-696.15 -372.722)"/><path class="c" d="M410.254,659.688v-5.064l2.336,2.336.584-.6-3.337-3.337-3.337,3.337.584.584,2.336-2.316v5.064Z" transform="translate(-312.09 -488.951)"/><circle class="c" cx="2.09" cy="2.09" r="2.09" transform="translate(217.321 79.406)"/><circle class="c" cx="1.567" cy="1.567" r="1.567" transform="translate(60.599 75.226)"/><circle class="c" cx="1.567" cy="1.567" r="1.567" transform="translate(109.705 118.064)"/><ellipse class="c" cx="1.045" cy="0.522" rx="1.045" ry="0.522" transform="translate(255.979 147.318)"/><circle class="c" cx="0.522" cy="0.522" r="0.522" transform="translate(194.335 170.304)"/><circle class="c" cx="1.045" cy="1.045" r="1.045" transform="translate(86.719 189.111)"/><circle class="c" cx="0.522" cy="0.522" r="0.522" transform="translate(26.12 122.243)"/><ellipse class="c" cx="1.045" cy="0.522" rx="1.045" ry="0.522" transform="translate(33.434 104.481)"/><circle class="c" cx="1.045" cy="1.045" r="1.045" transform="translate(213.142 197.469)"/><circle class="c" cx="1.045" cy="1.045" r="1.045" transform="translate(58.51 168.215)"/><ellipse class="c" cx="0.522" cy="1.045" rx="0.522" ry="1.045" transform="translate(78.361 91.943)"/><path class="c" d="M362.677,216.31h-4.31V212h-.556v4.31H353.5v.556h4.31v4.31h.556v-4.31h4.31Z" transform="translate(-255.197 -153.046)"/><path class="c" d="M749.562,507.111H746.95V504.5h-.339v2.611H744v.339h2.611v2.611h.339V507.45h2.611Z" transform="translate(-537.105 -364.207)"/><path class="c" d="M692.562,682.111H689.95V679.5h-.339v2.611H687v.339h2.611v2.611h.339V682.45h2.611Z" transform="translate(-495.956 -490.542)"/><path class="c" d="M225.562,660.111H222.95V657.5h-.339v2.611H220v.339h2.611v2.611h.339V660.45h2.611Z" transform="translate(-158.822 -474.66)"/><path class="c" d="M159.562,484.111H156.95V481.5h-.339v2.611H154v.339h2.611v2.611h.339V484.45h2.611Z" transform="translate(-111.175 -347.603)"/><path class="d" d="M446.811,665.587l.019-1.566-.94-.011-.019,1.566-1.621,4.683,4.071.047Z" transform="translate(-320.711 -479.36)"/><path class="d" d="M461.328,665.8l.02-1.6-.965-.014-.019,1.607-1.663,4.8,4.177.047Z" transform="translate(-331.143 -479.482)"/><path class="d" d="M476.1,665.937l.019-1.566-.94-.011-.019,1.566-1.621,4.683,4.074.047Z" transform="translate(-341.856 -479.612)"/><path class="d" d="M580.348,667.218l.019-1.607-.965-.011-.019,1.607-1.663,4.8,4.177.05Z" transform="translate(-417.065 -480.508)"/><path class="d" d="M595.368,667.4l.019-1.607-.965-.011-.019,1.607-1.663,4.8,4.177.05Z" transform="translate(-427.908 -480.637)"/><path class="d" d="M610.388,667.578l.019-1.607-.965-.011-.019,1.607-1.663,4.8,4.177.05Z" transform="translate(-438.752 -480.767)"/><path class="d" d="M512.168,666.408l.019-1.607-.965-.011L511.2,666.4l-1.663,4.8,4.177.05Z" transform="translate(-367.845 -479.923)"/><path class="d" d="M527.188,666.588l.019-1.607-.962-.011-.019,1.607-1.666,4.8,4.177.05Z" transform="translate(-378.688 -480.053)"/><path class="d" d="M542.208,666.768l.019-1.607-.962-.011-.019,1.607-1.666,4.8,4.18.05Z" transform="translate(-389.531 -480.183)"/><path class="d" d="M519.357,289.656c-.058-5.534-6.577-15.345-10.094-15.386s-9.95,9.613-10.139,15.144h-.167L497.63,400.595l20.406.242,1.326-111.178Z" transform="translate(-377.879 -215.525)"/><path class="d" d="M653.4,291.256c-.058-5.534-6.577-15.345-10.094-15.386s-9.95,9.613-10.136,15.144h-.167L631.68,402.195l20.406.242,1.326-111.178Z" transform="translate(-474.651 -216.68)"/><path class="e" d="M585.847,85.522c-.031-8.112-6.5-22.461-10.011-22.5s-10.011,14.152-10.225,22.247h-.164L563.5,248.29l20.4.245L585.85,85.508Z" transform="translate(-425.431 -63.02)"/><path class="b" d="M509.13,375.3l7.753-7.753,7.825,7.753h-5.317v5.926H514.45v-5.89Z" transform="translate(-367.549 -265.34)"/><g class="f" transform="translate(119.757 0.283)"><path d="M641.87,293.823c2.111-4.925,6.232-10.061,8.8-10.03,3.337.039,9.349,8.84,10.031,14.46l.072-6.037h0c-.058-5.534-6.577-15.345-10.094-15.386-2.531-.031-6.574,4.972-8.71,9.839Z" transform="translate(-601.765 -217.656)"/><path d="M498.974,144.873h.167c.186-5.531,6.621-15.186,10.136-15.144,2.3.028,5.87,4.219,8.092,8.665l.539-45.15h.164c.217-8.109,6.71-22.3,10.225-22.247,3.32.039,9.277,12.85,9.95,21.107l.064-5.562h0c-.031-8.112-6.5-22.461-10.011-22.5S518.289,78.191,518.075,86.3h-.164l-.539,45.15c-2.225-4.449-5.8-8.637-8.092-8.665-3.515-.042-9.95,9.613-10.136,15.144h-.167L497.65,249.11h.083Z" transform="translate(-497.65 -64.04)"/></g><rect class="g" width="3.857" height="8.356" rx="1.929" transform="translate(148.474 7.037) rotate(0.68)"/></g></svg>