<svg xmlns="http://www.w3.org/2000/svg" width="18.882" height="23.204" viewBox="0 0 18.882 23.204"><defs><style>.a{fill:#ffdb64;}.b{fill:rgba(255,219,100,0.22);}.c{fill:#46c43d;}.d{fill:#eef3ef;}</style></defs><path class="a" d="M60.678,6.616V21.873c0,1.385-1.166,1.33-2.6,1.33H44.4c-1.438,0-2.6.055-2.6-1.33V1.425C41.8.039,42.962,0,44.4,0h9.376l.2.188-.13.125V5.644a.924.924,0,0,0,.91.941h5.6l.163-.157Z" transform="translate(-41.796)"/><path class="b" d="M241.88,9.721l-.165.165h-5.627a.96.96,0,0,1-.993-.926q0-.034,0-.067V3.266l.132-.132Z" transform="translate(-223.164 -2.935)"/><path class="c" d="M216.091,237.192l2.515,3.376h-3.575l-.827-1.192h0Z" transform="translate(-203.514 -223.083)"/><path class="d" d="M100.185,202.186l.827,1.192H92.473l4.369-5.892Z" transform="translate(-89.358 -185.842)"/><circle class="d" cx="1.357" cy="1.357" r="1.357" transform="translate(9.61 8.844)"/></svg>