<svg xmlns="http://www.w3.org/2000/svg" width="42" height="42" viewBox="0 0 42 42"><defs><style>.a{fill:none;}.b{fill:#fff;}</style></defs><path class="a" d="M0,0H42V42H0Z"/><path class="b" d="M14,28.5A3.5,3.5,0,1,1,10.5,25,3.51,3.51,0,0,1,14,28.5Zm-3.5-14A3.5,3.5,0,1,0,14,18,3.51,3.51,0,0,0,10.5,14.5ZM10.5,4A3.5,3.5,0,1,0,14,7.5,3.51,3.51,0,0,0,10.5,4ZM21,11a3.5,3.5,0,1,0-3.5-3.5A3.51,3.51,0,0,0,21,11Zm0,3.5A3.5,3.5,0,1,0,24.5,18,3.51,3.51,0,0,0,21,14.5ZM21,25a3.5,3.5,0,1,0,3.5,3.5A3.51,3.51,0,0,0,21,25Z" transform="translate(5.25 3)"/></svg>