<svg xmlns="http://www.w3.org/2000/svg" width="24.046" height="24.046" viewBox="0 0 24.046 24.046"><defs><style>.a{fill:none;}</style></defs><path class="a" d="M0,0H24.046V24.046H0Z"/><path d="M12.015,5.9a2.1,2.1,0,1,1-2.1,2.1,2.1,2.1,0,0,1,2.1-2.1m0,9.017c2.976,0,6.112,1.463,6.112,2.1v1.1H5.9v-1.1c0-.641,3.136-2.1,6.112-2.1M12.015,4a4.008,4.008,0,1,0,4.008,4.008A4.007,4.007,0,0,0,12.015,4Zm0,9.017C9.34,13.017,4,14.36,4,17.025v3.006H20.031V17.025C20.031,14.36,14.691,13.017,12.015,13.017Z" transform="translate(0.008 0.008)"/></svg>