<svg xmlns="http://www.w3.org/2000/svg" width="59.584" height="59.584" viewBox="0 0 59.584 59.584"><defs><style>.a{fill:none;}.b{fill:#fff;}</style></defs><path class="a" d="M0,0H59.584V59.584H0Z"/><path class="b" d="M42.723,13.413H37.757a12.413,12.413,0,0,0-24.827,0H7.965A4.98,4.98,0,0,0,3,18.379V48.171a4.98,4.98,0,0,0,4.965,4.965H42.723a4.98,4.98,0,0,0,4.965-4.965V18.379A4.98,4.98,0,0,0,42.723,13.413ZM25.344,5.965a7.438,7.438,0,0,1,7.448,7.448H17.9A7.438,7.438,0,0,1,25.344,5.965ZM42.723,48.171H7.965V18.379H42.723ZM25.344,28.309A7.438,7.438,0,0,1,17.9,20.861H12.931a12.413,12.413,0,0,0,24.827,0H32.792A7.438,7.438,0,0,1,25.344,28.309Z" transform="translate(4.448 1.483)"/></svg>