<svg xmlns="http://www.w3.org/2000/svg" width="39.824" height="39.824" viewBox="0 0 39.824 39.824"><defs><style>.a{fill:none;}.b{fill:#02a0fc;}</style></defs><path class="a" d="M0,0H39.824V39.824H0Z"/><path class="b" d="M13.615,19.519C9.733,19.519,2,21.461,2,25.327v2.9H25.231v-2.9C25.231,21.461,17.5,19.519,13.615,19.519ZM5.883,24.912a16,16,0,0,1,7.733-2.074,16,16,0,0,1,7.733,2.074Zm7.733-8.3a5.808,5.808,0,1,0-5.808-5.808A5.814,5.814,0,0,0,13.615,16.615Zm0-8.3a2.489,2.489,0,1,1-2.489,2.489A2.486,2.486,0,0,1,13.615,8.319ZM25.3,19.619a6.957,6.957,0,0,1,3.252,5.708v2.9h6.637v-2.9C35.187,21.975,29.379,20.067,25.3,19.619Zm-1.726-3A5.808,5.808,0,0,0,23.571,5a5.717,5.717,0,0,0-2.489.581,9.062,9.062,0,0,1,0,10.454A5.717,5.717,0,0,0,23.571,16.615Z" transform="translate(1.319 3.297)"/></svg>