<svg xmlns="http://www.w3.org/2000/svg" width="39.652" height="39.652" viewBox="0 0 39.652 39.652"><defs><style>.a{fill:none;}.b{fill:#34b53a;}</style></defs><path class="a" d="M0,0H39.652V39.652H0Z"/><path class="b" d="M27.783,14.217l-2.33-2.346L14.565,22.759,10.286,18.5l-2.33,2.33,6.609,6.609ZM29.435,4.3H22.529a4.937,4.937,0,0,0-9.318,0H6.3a2.894,2.894,0,0,0-.661.066A3.338,3.338,0,0,0,3.264,6.337,3.183,3.183,0,0,0,3,7.609V30.739a3.39,3.39,0,0,0,.264,1.289,3.5,3.5,0,0,0,.71,1.057,3.317,3.317,0,0,0,1.669.909,4.288,4.288,0,0,0,.661.05H29.435a3.314,3.314,0,0,0,3.3-3.3V7.609A3.314,3.314,0,0,0,29.435,4.3ZM17.87,3.891A1.239,1.239,0,1,1,16.63,5.13,1.248,1.248,0,0,1,17.87,3.891ZM29.435,30.739H6.3V7.609H29.435Z" transform="translate(1.957 0.652)"/></svg>