<svg xmlns="http://www.w3.org/2000/svg" width="23.978" height="23.978" viewBox="0 0 23.978 23.978"><defs><style>.a{fill:none;}</style></defs><path class="a" d="M0,0H23.978V23.978H0Z"/><path d="M17.986,8.993,16.577,7.574,9.993,14.158,7.406,11.58,6,12.989l4,4Zm1-5.994H14.809A2.985,2.985,0,0,0,9.174,3H5a1.75,1.75,0,0,0-.4.04A2.019,2.019,0,0,0,3.16,4.227,1.925,1.925,0,0,0,3,5V18.983a2.05,2.05,0,0,0,.16.779,2.117,2.117,0,0,0,.43.639,2.006,2.006,0,0,0,1.009.549,2.593,2.593,0,0,0,.4.03H18.985a2,2,0,0,0,2-2V5A2,2,0,0,0,18.985,3Zm-6.993-.25a.749.749,0,1,1-.749.749A.755.755,0,0,1,11.992,2.748Zm6.993,16.235H5V5H18.985Z" transform="translate(-0.003 -0.001)"/></svg>