<svg xmlns="http://www.w3.org/2000/svg" width="16.28" height="16.28" viewBox="0 0 16.28 16.28"><defs><style>.a{fill:none;}</style></defs><path class="a" d="M0,0H16.28V16.28H0Z"/><path d="M13.175,6.427l-.956-.963-4.47,4.47L5.991,8.184l-.956.956,2.713,2.713Zm.678-4.07H11.018a2.027,2.027,0,0,0-3.826,0H4.357a1.188,1.188,0,0,0-.271.027,1.371,1.371,0,0,0-.977.807A1.307,1.307,0,0,0,3,3.713v9.5a1.392,1.392,0,0,0,.109.529,1.438,1.438,0,0,0,.292.434,1.362,1.362,0,0,0,.685.373,1.76,1.76,0,0,0,.271.02h9.5A1.361,1.361,0,0,0,15.21,13.21v-9.5A1.361,1.361,0,0,0,13.854,2.357Zm-4.748-.17A.509.509,0,1,1,8.6,2.7.512.512,0,0,1,9.105,2.187ZM13.854,13.21h-9.5v-9.5h9.5Z" transform="translate(-0.965 -0.322)"/></svg>