<svg xmlns="http://www.w3.org/2000/svg" width="59.215" height="59.117" viewBox="0 0 59.215 59.117"><defs><style>.a{opacity:0.73;}.b{fill:none;}.c{fill:#fd585c;}</style></defs><g class="a"><path class="b" d="M0,0H59.117V59.117H0Z" transform="translate(0.098)"/><path class="c" d="M47.663,18.878a18.456,18.456,0,0,0-34.485-4.926,14.773,14.773,0,0,0,1.6,29.46H46.8a12.281,12.281,0,0,0,.862-24.534ZM46.8,38.485H14.779A9.845,9.845,0,0,1,13.7,18.853l2.636-.271,1.232-2.34a13.516,13.516,0,0,1,25.273,3.6l.739,3.695,3.769.271A7.349,7.349,0,0,1,46.8,38.485Zm-27.1-12.316h6.281v7.39H33.13v-7.39h6.281l-9.853-9.853Z" transform="translate(0 5.853)"/></g></svg>